# xmcd
#
# Track frame offsets: 
#        150
#        21091
#        60261
#        82739
#        119273
#        147455
#
# Disc length: 2514 seconds
#
# Revision: 0
# Processed by: cddbd v1.5.2PL0 Copyright (c) Steve Scherf et al.
# Submitted via: ExactAudioCopy v0.99pb5
#
DISCID=4209d006
DTITLE=Ray Goren - The Generation Blues Experience
DYEAR=2012
DGENRE=Blues
TTITLE0=Rock Me Baby
TTITLE1=When You Leave Don't Take Nothing
TTITLE2=Every Day I Have The Blues
TTITLE3=Little Bluebird
TTITLE4=Sugar Momma
TTITLE5=Man Of The House
EXTD=
EXTT0=
EXTT1=
EXTT2=
EXTT3=
EXTT4=
EXTT5=
PLAYORDER=
